<svg width="421.35" height="117.75" viewBox="0 0 421.35 117.75" xmlns="http://www.w3.org/2000/svg"><g id="svgGroup" stroke-linecap="round" fill-rule="nonzero" font-size="9pt" stroke="#000000" stroke-width="0mm" fill="#31d4cc" style="stroke:#000000;stroke-width:0mm;fill:#31d4cc"><path d="M 54 114.75 L 84 9.3 A 0.217 0.217 0 0 1 84.119 9.109 Q 84.282 9.01 84.667 9.001 A 3.439 3.439 0 0 1 84.75 9 A 4.702 4.702 0 0 1 85.226 9.023 A 3.681 3.681 0 0 1 85.575 9.075 Q 85.95 9.15 86.1 9.3 L 116.25 113.25 A 3.753 3.753 0 0 1 116.329 113.518 Q 116.495 114.177 116.272 114.495 A 0.583 0.583 0 0 1 116.25 114.525 A 0.804 0.804 0 0 1 115.949 114.75 Q 115.678 114.873 115.245 114.895 A 3.853 3.853 0 0 1 115.05 114.9 L 113.925 114.9 A 5.423 5.423 0 0 1 112.964 114.817 A 4.79 4.79 0 0 1 112.65 114.75 L 92.7 44.25 A 967.849 967.849 0 0 0 90.919 37.519 A 834.494 834.494 0 0 0 89.175 31.125 A 602.623 602.623 0 0 1 87.966 26.699 Q 87.497 24.956 87.087 23.381 A 313.943 313.943 0 0 1 86.325 20.4 Q 85.2 15.9 85.05 14.4 A 12.325 12.325 0 0 1 84.938 15.2 Q 84.72 16.49 84.154 18.853 A 162.469 162.469 0 0 1 83.775 20.4 A 583.496 583.496 0 0 1 82.857 24.018 Q 82.444 25.626 81.98 27.403 A 1106.672 1106.672 0 0 1 81 31.125 Q 79.35 37.35 77.4 44.25 L 58.2 113.85 A 1.612 1.612 0 0 1 58.084 114.215 A 0.92 0.92 0 0 1 57.45 114.75 A 4.869 4.869 0 0 1 56.77 114.867 A 6.518 6.518 0 0 1 56.1 114.9 L 55.35 114.9 Q 54.75 114.9 54 114.75 Z M 216 80.55 L 216 76.95 L 219.975 77.025 A 135.875 135.875 0 0 0 221.358 77.044 Q 224.963 77.075 230.025 76.95 A 225.037 225.037 0 0 0 239.433 76.514 A 255.748 255.748 0 0 0 242.7 76.275 A 124.074 124.074 0 0 0 249 75.619 A 93.965 93.965 0 0 0 254.7 74.7 Q 254.906 72.328 255.042 70.382 A 158.278 158.278 0 0 0 255.15 68.7 A 89.202 89.202 0 0 0 255.3 63.619 A 97.003 97.003 0 0 0 255.3 63.45 Q 255.197 56.674 253.76 51.796 A 23.548 23.548 0 0 0 252.15 47.7 Q 249.381 42.3 241.627 41.885 A 24.812 24.812 0 0 0 240.3 41.85 A 32.61 32.61 0 0 0 235.624 42.202 A 40.483 40.483 0 0 0 232.65 42.75 A 13.432 13.432 0 0 0 228.242 44.645 Q 226.706 45.642 225.23 47.095 A 23.865 23.865 0 0 0 224.925 47.4 A 16.942 16.942 0 0 0 222.468 50.676 Q 220.441 54.115 219 59.4 A 51.116 51.116 0 0 0 217.814 65.171 Q 216.75 72.197 216.75 82.2 Q 216.75 92.34 218.289 98.354 A 29.712 29.712 0 0 0 218.4 98.775 Q 219.53 102.937 221.294 105.655 A 13.411 13.411 0 0 0 223.05 107.85 A 14.539 14.539 0 0 0 227.6 110.982 A 13.774 13.774 0 0 0 229.95 111.75 Q 233.85 112.65 238.35 112.65 Q 243.9 112.65 249.075 111.225 A 28.02 28.02 0 0 0 253.21 109.75 Q 255.681 108.629 257.55 107.1 Q 258 108 258.15 108.75 A 10.792 10.792 0 0 1 258.229 109.189 Q 258.293 109.593 258.299 109.883 A 2.902 2.902 0 0 1 258.3 109.95 A 1.137 1.137 0 0 1 258.087 110.567 Q 257.622 111.276 256.147 112.149 A 18.464 18.464 0 0 1 255.525 112.5 A 21.89 21.89 0 0 1 253.201 113.572 Q 251.063 114.422 248.25 115.125 A 37.799 37.799 0 0 1 241.786 116.135 A 45.807 45.807 0 0 1 238.5 116.25 A 45.733 45.733 0 0 1 232.043 115.811 A 38.208 38.208 0 0 1 228.45 115.125 Q 223.8 114 220.35 110.55 Q 216.9 107.1 215.025 100.125 A 45.744 45.744 0 0 1 213.958 94.789 Q 213.15 89.18 213.15 81.6 Q 213.15 67.1 215.581 58.392 A 41.102 41.102 0 0 1 215.7 57.975 A 49.925 49.925 0 0 1 217.44 52.937 Q 218.446 50.491 219.617 48.553 A 19.976 19.976 0 0 1 222.3 45 A 22.762 22.762 0 0 1 225.973 41.885 A 17.107 17.107 0 0 1 231.075 39.525 A 37.254 37.254 0 0 1 236.835 38.429 A 31.301 31.301 0 0 1 240.15 38.25 A 24.65 24.65 0 0 1 245.552 38.801 Q 248.946 39.564 251.393 41.383 A 13.252 13.252 0 0 1 254.625 44.85 A 25.265 25.265 0 0 1 257.945 52.812 Q 258.721 56.076 258.866 59.87 A 46.452 46.452 0 0 1 258.9 61.65 Q 258.9 66 258.675 70.2 A 74.774 74.774 0 0 1 258.356 74.213 A 56.797 56.797 0 0 1 257.85 77.85 A 121.255 121.255 0 0 1 245.578 79.638 A 134.736 134.736 0 0 1 243.75 79.8 Q 236.4 80.4 230.1 80.55 A 408.513 408.513 0 0 1 227.1 80.611 Q 223.775 80.666 221.267 80.644 A 130.308 130.308 0 0 1 219.9 80.625 L 216 80.55 Z M 274.65 114.75 L 274.65 43.65 Q 278.7 42 282.675 40.8 Q 286.65 39.6 290.85 38.925 Q 295.05 38.25 299.4 38.25 Q 307.8 38.25 312.15 40.725 Q 316.5 43.2 318 47.925 Q 319.5 52.65 319.5 59.55 L 319.5 113.25 Q 319.5 113.826 319.411 114.137 A 0.946 0.946 0 0 1 319.35 114.3 A 0.45 0.45 0 0 1 319.187 114.473 Q 319.029 114.576 318.745 114.632 A 3.104 3.104 0 0 1 318.45 114.675 A 10.169 10.169 0 0 1 318.009 114.708 Q 317.33 114.746 316.178 114.75 A 80.559 80.559 0 0 1 315.9 114.75 L 315.9 60.15 A 45.01 45.01 0 0 0 315.657 55.298 Q 315.035 49.584 312.825 46.35 Q 310.087 42.342 301.697 41.904 A 41.169 41.169 0 0 0 299.55 41.85 Q 296.513 41.85 292.417 42.399 A 98.55 98.55 0 0 0 289.125 42.9 A 47.253 47.253 0 0 0 283.464 44.199 A 34.854 34.854 0 0 0 278.25 46.2 L 278.25 113.25 Q 278.25 113.826 278.161 114.137 A 0.946 0.946 0 0 1 278.1 114.3 A 0.45 0.45 0 0 1 277.937 114.473 Q 277.779 114.576 277.495 114.632 A 3.104 3.104 0 0 1 277.2 114.675 A 10.169 10.169 0 0 1 276.759 114.708 Q 276.08 114.746 274.928 114.75 A 80.559 80.559 0 0 1 274.65 114.75 Z M 191.85 41.85 L 191.85 6.75 A 6.026 6.026 0 0 1 191.874 6.197 Q 191.924 5.656 192.081 5.329 A 1.1 1.1 0 0 1 192.225 5.1 A 1.234 1.234 0 0 1 192.654 4.778 Q 192.994 4.617 193.5 4.575 A 19.535 19.535 0 0 1 194.217 4.529 Q 194.85 4.5 195.6 4.5 L 195.6 111.75 A 27.712 27.712 0 0 1 192.229 113.275 Q 189.69 114.238 186.525 114.975 A 49.126 49.126 0 0 1 178.607 116.125 A 58.616 58.616 0 0 1 174.75 116.25 A 38.368 38.368 0 0 1 168.347 115.733 A 32.843 32.843 0 0 1 165.225 115.05 Q 160.8 113.85 157.425 110.1 A 17.475 17.475 0 0 1 155.105 106.76 Q 154.143 104.998 153.357 102.797 A 42.107 42.107 0 0 1 152.175 98.85 A 39.085 39.085 0 0 1 152.131 98.673 Q 150.3 91.201 150.3 78.6 Q 150.3 68.512 152.261 61.052 A 39.988 39.988 0 0 1 154.05 55.725 A 37.207 37.207 0 0 1 157.369 49.462 Q 159.787 45.841 162.866 43.426 A 22.222 22.222 0 0 1 164.1 42.525 Q 170.4 38.25 177.75 38.25 A 43.369 43.369 0 0 1 181.753 38.426 A 31.663 31.663 0 0 1 185.55 39 Q 189 39.75 191.85 41.85 Z M 192 108.9 L 191.85 46.05 Q 189.113 43.745 186.376 42.824 A 12.604 12.604 0 0 0 186.15 42.75 Q 183.3 41.85 178.2 41.85 Q 173.1 41.85 168.675 44.175 A 20.858 20.858 0 0 0 162.952 48.656 A 26.255 26.255 0 0 0 160.95 51.15 Q 157.699 55.732 155.831 62.425 A 51.084 51.084 0 0 0 155.775 62.625 Q 153.9 69.45 153.9 78.6 Q 153.9 89.766 155.403 96.492 A 37.411 37.411 0 0 0 155.55 97.125 Q 156.597 101.457 158.159 104.369 A 15.023 15.023 0 0 0 160.125 107.25 A 14.511 14.511 0 0 0 164.08 110.436 A 13.306 13.306 0 0 0 167.025 111.6 A 31.347 31.347 0 0 0 172.176 112.49 A 39.739 39.739 0 0 0 175.8 112.65 Q 180.3 112.65 184.5 111.75 A 26.587 26.587 0 0 0 189.399 110.215 A 22.516 22.516 0 0 0 192 108.9 Z M 329.4 117.75 L 363.45 1.5 Q 363.734 0.789 364.086 0.483 A 1.202 1.202 0 0 1 364.125 0.45 A 1.303 1.303 0 0 1 364.436 0.27 Q 364.749 0.139 365.219 0.086 A 4.925 4.925 0 0 1 365.325 0.075 Q 366.15 0 367.5 0 L 333.6 116.4 A 1.319 1.319 0 0 1 332.95 117.246 A 1.822 1.822 0 0 1 332.85 117.3 A 3.427 3.427 0 0 1 332.149 117.555 Q 331.817 117.639 331.437 117.674 A 5.632 5.632 0 0 1 331.425 117.675 A 16.037 16.037 0 0 1 330.754 117.721 Q 330.15 117.75 329.4 117.75 Z M 39.6 94.65 L 0.75 77.7 Q 0 76.8 0 75.45 A 2.495 2.495 0 0 1 0.076 74.822 A 1.941 1.941 0 0 1 0.375 74.175 A 2.847 2.847 0 0 1 0.775 73.73 Q 1.078 73.453 1.5 73.2 L 42.6 52.8 A 8.584 8.584 0 0 1 43.018 53.341 Q 43.407 53.892 43.565 54.344 A 2.415 2.415 0 0 1 43.575 54.375 A 8.438 8.438 0 0 1 43.674 54.689 Q 43.756 54.973 43.785 55.167 A 1.271 1.271 0 0 1 43.8 55.349 Q 43.8 56.4 42.9 56.85 L 4.95 75.6 L 44.4 92.4 A 7.543 7.543 0 0 1 44.358 93.23 Q 44.264 94.077 43.96 94.574 A 1.615 1.615 0 0 1 43.725 94.875 A 4.494 4.494 0 0 1 43.421 95.154 Q 43.108 95.414 42.853 95.503 A 0.768 0.768 0 0 1 42.6 95.55 Q 41.949 95.55 40.166 94.871 A 36.49 36.49 0 0 1 39.6 94.65 Z M 419.85 75.6 L 378.75 96 A 8.584 8.584 0 0 1 378.333 95.459 Q 377.943 94.908 377.786 94.456 A 2.415 2.415 0 0 1 377.775 94.425 A 8.438 8.438 0 0 1 377.677 94.111 Q 377.594 93.827 377.565 93.633 A 1.271 1.271 0 0 1 377.55 93.451 Q 377.55 92.4 378.45 91.95 L 416.4 73.2 L 376.95 56.4 A 7.543 7.543 0 0 1 376.992 55.57 Q 377.086 54.723 377.39 54.226 A 1.615 1.615 0 0 1 377.625 53.925 A 4.494 4.494 0 0 1 377.929 53.646 Q 378.242 53.386 378.498 53.297 A 0.768 0.768 0 0 1 378.75 53.25 Q 379.401 53.25 381.184 53.929 A 36.49 36.49 0 0 1 381.75 54.15 L 420.6 71.1 Q 421.35 72 421.35 73.35 Q 421.35 73.95 420.975 74.55 A 2.85 2.85 0 0 1 420.435 75.177 A 3.985 3.985 0 0 1 419.85 75.6 Z M 128.55 114.75 L 128.55 42 Q 128.55 40.8 128.85 40.35 Q 129.15 39.9 129.975 39.825 Q 130.8 39.75 132.15 39.75 L 132.15 113.25 Q 132.15 113.826 132.061 114.137 A 0.946 0.946 0 0 1 132 114.3 A 0.45 0.45 0 0 1 131.837 114.473 Q 131.679 114.576 131.395 114.632 A 3.104 3.104 0 0 1 131.1 114.675 A 10.169 10.169 0 0 1 130.659 114.708 Q 129.98 114.746 128.828 114.75 A 80.559 80.559 0 0 1 128.55 114.75 Z M 105.75 82.95 L 66.3 82.95 L 66.3 79.35 L 105.75 79.35 L 105.75 82.95 Z M 129.353 22.469 A 2.247 2.247 0 0 1 128.1 21.45 Q 127.545 20.479 127.632 18.737 A 10.665 10.665 0 0 1 127.65 18.45 A 11.896 11.896 0 0 1 127.785 17.296 Q 127.983 16.138 128.402 15.42 A 3.215 3.215 0 0 1 128.475 15.3 A 2.172 2.172 0 0 1 130.046 14.282 A 3.06 3.06 0 0 1 130.5 14.25 Q 132 14.25 132.675 15.45 Q 133.35 16.65 133.2 18.75 A 11.733 11.733 0 0 1 133.071 19.822 Q 132.872 20.989 132.45 21.675 Q 131.85 22.65 130.2 22.65 A 3.628 3.628 0 0 1 129.353 22.469 Z" vector-effect="non-scaling-stroke"/></g></svg>